<!DOCTYPE svg PUBLIC "-//W3C//DTD SVG 1.1//EN" "http://www.w3.org/Graphics/SVG/1.1/DTD/svg11.dtd">
<!-- Uploaded to: SVG Repo, www.svgrepo.com, Transformed by: SVG Repo Mixer Tools -->
<svg width="800px" height="800px" viewBox="-12.72 -12.72 49.44 49.44" fill="none" xmlns="http://www.w3.org/2000/svg" stroke="#212121">
<g id="SVGRepo_bgCarrier" stroke-width="0"/>
<g id="SVGRepo_tracerCarrier" stroke-linecap="round" stroke-linejoin="round"/>
<g id="SVGRepo_iconCarrier">
<path d="M3 16C4.40293 15.7662 6.63687 15.7073 8.94504 16.2427M16 21C14.2965 18.2317 11.5726 16.8522 8.94504 16.2427M8.94504 16.2427C9.87157 15.1698 11.1851 14.1585 13 13.3925M22 12H21C19.5253 12 18.1962 12.104 17 12.2915M7.34105 7.5C7.13983 7.7284 7 8.05128 7 8.5C7 9.7 8 10 8.5 10C8.76691 10 9.1763 9.91451 9.5 9.65226" stroke="#565252" stroke-linecap="round" stroke-linejoin="round" stroke-width="0.624"/>
<path d="M4.85857 5C3.09032 6.80375 2 9.27455 2 12C2 17.5228 6.47715 22 12 22C14.7255 22 17.1962 20.9097 19 19.1414M8 2.83209C9.22492 2.29689 10.5778 2 12 2C17.5228 2 22 6.47715 22 12C22 13.0452 21.8396 14.053 21.5422 15C21.4349 15.3416 21.3098 15.6753 21.1679 16" stroke="#565252" stroke-linecap="round" stroke-linejoin="round" stroke-width="0.624"/>
<path d="M2 2L22 22" stroke="#565252" stroke-linecap="round" stroke-linejoin="round" stroke-width="0.624"/>
</g>
</svg>