<!DOCTYPE svg PUBLIC "-//W3C//DTD SVG 1.1//EN" "http://www.w3.org/Graphics/SVG/1.1/DTD/svg11.dtd">
<!-- Uploaded to: SVG Repo, www.svgrepo.com, Transformed by: SVG Repo Mixer Tools -->
<svg fill="#808080" width="256px" height="256px" viewBox="-230.4 -230.4 2380.80 2380.80" xmlns="http://www.w3.org/2000/svg" stroke="#808080" stroke-width="0.019200000000000002">
<g id="SVGRepo_bgCarrier" stroke-width="0"/>
<g id="SVGRepo_tracerCarrier" stroke-linecap="round" stroke-linejoin="round"/>
<g id="SVGRepo_iconCarrier"> <path d="M1740 0c99.24 0 180 80.76 180 180v1560c0 99.24-80.76 180-180 180H180c-99.24 0-180-80.76-180-180V180C0 80.76 80.76 0 180 0Zm60 720H720v1080h945c74.25 0 135-60.75 135-135V720ZM600 1320H120v420c0 33 27 60 60 60h420v-480Zm0-600H120v480h480V720Zm1140-600h-420v480h480V180c0-33-27-60-60-60Zm-540 0H720v480h480V120Zm-600 0H180c-33 0-60 27-60 60v420h480V120Zm1134 841.559L1564.441 792 1259.5 1096.941 954.559 792 785 961.559l304.941 304.941L785 1571.441 954.559 1741l304.941-304.941L1564.441 1741 1734 1571.441 1429.059 1266.5 1734 961.559Z" fill-rule="evenodd"/> </g>
</svg>